<svg xmlns="http://www.w3.org/2000/svg" xmlns:xlink="http://www.w3.org/1999/xlink" viewBox="0 0 105 29" fill="#fff" fill-rule="evenodd" stroke="#000" stroke-linecap="round" stroke-linejoin="round"><use xlink:href="#A" x=".5" y=".5"/><symbol id="A" overflow="visible"><g stroke="none"><path d="M0 22.14h6.223l-1.928 5.822H0zm0-11.07h9.888L7.97 16.882H0zM0 0h13.553l-1.928 5.822H0zm19.686 0h15.47v5.822H17.758zm-5.593 16.9l1.928-5.822h19.135V16.9zm-1.737 5.247h22.8v5.822h-24.73z" fill="#fd5750"/><path d="M65.308 16.998l1.498-4.53 1.266.004-1.996 5.778H64.5l-1.882-5.782h1.315zm17.46-7.432v7.562h1.748v1.123H81.53v-7.64h-1.234V9.566zm-5.928 3.973c.025-.098.286-1.122 1.3-1.122h1.74v1.252h-1.927a1.06 1.06 0 0 0-1.035 1.053l-.005 3.53h-1.275v-5.797l1.18-.002zm17.883 1.2c.93.1 2.337.275 2.412 1.7.036.674-.232 1.096-.462 1.33-.595.605-1.54.645-2.197.622-1.285-.045-2.4-.58-2.436-.604l.535-1.1c.008.004.866.465 1.882.542 1.52.115 1.532-.484 1.52-.738-.018-.337-.32-.443-1.395-.57-.955-.112-2.398-.282-2.432-1.792-.01-.466.153-.88.475-1.198.43-.425 1.132-.653 1.928-.625 1.216.042 2.262.365 2.306.378l-.36 1.16a8.64 8.64 0 0 0-1.988-.324c-.442-.015-.848.093-1.033.275-.083.08-.117.176-.115.307.01.353.188.477 1.362.615zm8.614 1.7c.036.674-.232 1.096-.462 1.33-.595.605-1.54.645-2.197.622-1.285-.045-2.4-.58-2.436-.604l.494-1.006a6.87 6.87 0 0 0 1.923.458c1.52.115 1.532-.484 1.52-.738-.018-.337-.32-.443-1.395-.57-.955-.112-2.398-.283-2.433-1.792-.01-.466.153-.88.475-1.198.43-.425 1.132-.653 1.928-.625a9.74 9.74 0 0 1 2.306.378l-.36 1.158c-.01-.003-.94-.324-1.988-.324-.924 0-1.148.295-1.148.582 0 .353.188.477 1.362.615.93.1 2.337.275 2.412 1.7zm-56.342-1.7c.93.1 2.337.275 2.412 1.7.036.674-.232 1.096-.462 1.33-.595.605-1.54.645-2.197.622-1.285-.045-2.4-.58-2.436-.604l.535-1.1c.008.004.866.465 1.882.542 1.52.115 1.532-.484 1.52-.738-.018-.337-.32-.443-1.395-.57-.955-.112-2.398-.282-2.433-1.792-.01-.466.153-.88.475-1.198.43-.425 1.132-.653 1.928-.625a9.76 9.76 0 0 1 2.306.378l-.36 1.16c-.01-.003-.94-.288-1.988-.324-.442-.015-.848.093-1.033.275-.083.08-.118.176-.115.307.008.353.188.477 1.362.615zm41.198-2.42c2.732 0 2.732 2.78 2.732 2.78v.744h-4.34c0 .707.617 1.467 1.76 1.467.956 0 1.947-.386 1.947-.386l.316.994s-1.218.487-2.365.487c-2.733 0-2.936-2.43-2.936-3.087s.46-3 2.886-3zm1.552 2.476s.056-1.373-1.552-1.373c-1.454 0-1.623 1.373-1.623 1.373zm-18.152-2.483c2.732 0 2.732 2.78 2.732 2.78v.744h-4.34c0 .707.617 1.467 1.76 1.467.956 0 1.947-.386 1.947-.386l.316.994s-1.218.487-2.365.487c-2.733 0-2.936-2.43-2.936-3.087s.46-3 2.886-3zm1.552 2.476s.056-1.373-1.552-1.373c-1.454 0-1.623 1.373-1.623 1.373zm-19.887-2.476c2.732 0 2.732 2.78 2.732 2.78v.744h-4.34c0 .707.617 1.467 1.76 1.467.956 0 1.947-.386 1.947-.386l.316.994s-1.218.487-2.365.487c-2.733 0-2.937-2.43-2.937-3.087s.462-3 2.886-3zm1.552 2.476s.056-1.373-1.552-1.373c-1.454 0-1.623 1.373-1.623 1.373zm3.648-1.248c.025-.098.286-1.122 1.3-1.122h1.74v1.252H59.57a1.06 1.06 0 0 0-1.035 1.053l-.006 3.53h-1.275v-5.797l1.18-.002z" fill="#000"/></g></symbol></svg>